<svg xmlns="http://www.w3.org/2000/svg" version="1.1" xmlns:xlink="http://www.w3.org/1999/xlink" xmlns:svgjs="http://svgjs.dev/svgjs" width="100px" height="100px"><svg width="100px" height="100px" viewBox="0 0 48.00 48.00" id="SvgjsSvg1031" data-name="favicon" xmlns="http://www.w3.org/2000/svg" fill="#8b0000" stroke="#8b0000" stroke-width="2" transform="matrix(1, 0, 0, -1, 0, 0)rotate(0)">

<g id="SvgjsG1030" stroke-width="0"></g>

<g id="SvgjsG1029" stroke-linecap="round" stroke-linejoin="round"></g>

<g id="SvgjsG1028">

<defs>

<style>.cls-1{fill:none;stroke:#8b0000;stroke-linecap:round;stroke-linejoin:round;}</style>

</defs>

<path class="cls-1" d="M40.5,5.5H7.5a2,2,0,0,0-2,2v33a2,2,0,0,0,2,2h33a2,2,0,0,0,2-2V7.5A2,2,0,0,0,40.5,5.5Z"></path>

<line class="cls-1" x1="17.31" y1="10.54" x2="17.31" y2="37.42"></line>

<line class="cls-1" x1="20.78" y1="23.98" x2="30.69" y2="10.63"></line>

<line class="cls-1" x1="20.78" y1="23.98" x2="30.69" y2="37.46"></line>

<line class="cls-1" x1="20.78" y1="23.98" x2="17.31" y2="23.98"></line>

</g>

</svg><style>@media (prefers-color-scheme: light) { :root { filter: none; } }
@media (prefers-color-scheme: dark) { :root { filter: none; } }
</style></svg>